<?xml version="1.0" standalone="no"?>
<!DOCTYPE svg PUBLIC "-//W3C//DTD SVG 20010904//EN"
 "http://www.w3.org/TR/2001/REC-SVG-20010904/DTD/svg10.dtd">
<svg version="1.0" xmlns="http://www.w3.org/2000/svg"
 width="900.000000pt" height="580.000000pt" viewBox="0 0 900.000000 580.000000"
 preserveAspectRatio="xMidYMid meet">
<metadata>
Created by potrace 1.15, written by Peter Selinger 2001-2017
</metadata>
<g transform="translate(0.000000,580.000000) scale(0.100000,-0.100000)"
fill="#000000" stroke="none">
<path d="M4240 5787 c-3 -2 -57 -7 -120 -11 -580 -32 -1126 -168 -1545 -385
-330 -171 -483 -288 -831 -635 -359 -359 -481 -508 -491 -599 -6 -52 8 -67 71
-74 72 -9 184 12 676 124 256 58 483 109 505 114 22 5 90 20 150 34 484 111
1314 166 1580 104 70 -16 122 -45 131 -71 6 -21 -3 -2364 -11 -2628 -5 -166
-8 -1270 -3 -1275 5 -5 457 -9 462 -4 8 7 16 744 31 2619 3 366 8 805 11 975
6 347 4 338 82 364 55 19 336 25 492 11 354 -31 923 -128 1500 -254 423 -93
662 -148 825 -191 135 -36 178 -40 198 -20 23 22 22 33 -13 101 -66 132 -362
488 -611 735 -193 192 -401 336 -704 489 -474 240 -1008 391 -1620 461 -95 10
-756 24 -765 16z"/>
<path d="M2890 3903 c-1024 -37 -1715 -153 -1814 -305 -31 -47 -50 -464 -31
-668 10 -99 52 -299 84 -398 132 -404 467 -824 941 -1181 434 -327 990 -613
1293 -666 50 -8 95 2 102 24 3 9 41 194 84 411 74 368 106 538 196 1060 20
113 67 345 106 515 132 580 154 714 147 892 -5 128 -28 193 -89 247 -47 43
-90 55 -238 67 -104 8 -588 9 -781 2z"/>
<path d="M5425 3871 c-67 -11 -106 -32 -144 -78 -55 -67 -66 -118 -65 -303 1
-186 14 -279 95 -675 76 -368 106 -527 129 -690 19 -140 85 -579 95 -635 3
-14 10 -54 15 -90 46 -282 132 -725 142 -732 21 -12 108 -9 177 7 264 63 727
286 1076 519 250 166 396 285 580 470 464 466 637 872 638 1496 0 261 -8 332
-40 371 -122 145 -715 258 -1723 329 -187 14 -910 21 -975 11z"/>
</g>
</svg>
